<?xml version="1.0" encoding="UTF-8"?>
<svg width="20px" height="20px" viewBox="0 0 20 20" version="1.1" xmlns="http://www.w3.org/2000/svg" xmlns:xlink="http://www.w3.org/1999/xlink">
    <!-- Generator: Sketch 52.5 (67469) - http://www.bohemiancoding.com/sketch -->
    <title>safari-pinned-tab</title>
    <desc>Created with Sketch.</desc>
    <g id="safari-pinned-tab" stroke="none" stroke-width="1" fill="none" fill-rule="evenodd">
        <rect fill="#FFFFFF" x="0" y="0" width="20" height="20"></rect>
        <g id="heart-shape-outline-copy-3" transform="translate(0.066667, 2.666667)" fill-rule="nonzero">
            <path d="M16.0429734,1.17868823 C15.2270991,0.392785101 14.0998933,0 12.6608498,0 C12.2626154,0 11.8561801,0.0681164873 11.4419488,0.204282877 C11.0275488,0.340549144 10.6420377,0.524390416 10.2858542,0.755673524 C9.92919814,0.986890046 9.62269266,1.20402383 9.3655615,1.40674196 C9.10873407,1.60952668 8.86456239,1.82502913 8.63335021,2.05308286 C8.40203678,1.82502913 8.1579326,1.60952668 7.90107142,1.40674196 C7.6440415,1.20402383 7.33740103,0.987023216 6.98081251,0.755673524 C6.62429149,0.524290539 6.23884785,0.340582437 5.8245491,0.204282877 C5.41028409,0.0681497798 5.00391628,0 4.6056819,0 C3.16673957,0 2.03946628,0.392884979 1.22369326,1.17868823 C0.407920254,1.96442489 0,3.05428869 0,4.4483795 C0,4.87295895 0.0755970356,5.31035602 0.226487369,5.76003804 C0.377377702,6.20995309 0.549327209,6.593383 0.741998404,6.91016129 C0.93463585,7.22690628 1.15309103,7.53579424 1.39719521,7.83682517 C1.64129939,8.13782281 1.81969489,8.34526847 1.93197674,8.45932863 C2.04435983,8.57338879 2.13271387,8.65585435 2.1969376,8.70659215 L8.20936558,14.4287433 C8.3250223,14.5428035 8.46632801,14.6 8.63331646,14.6 C8.80030491,14.6 8.94171187,14.5428035 9.05730108,14.4287433 L15.0601782,8.72540242 C16.5312155,7.27451458 17.2666667,5.8487293 17.2666667,4.44824633 C17.2667004,3.05405564 16.8588139,1.96429172 16.0429734,1.17868823 Z M14.2218611,7.83206434 L8.63335021,13.1454167 L3.03528848,7.8224761 C1.83403808,6.63776192 1.23351413,5.51284111 1.23351413,4.44824633 C1.23351413,3.9350422 1.30256392,3.48189776 1.44059601,3.08911266 C1.57872934,2.69626098 1.75536992,2.38407706 1.97055148,2.15279395 C2.18576679,1.92144426 2.44748778,1.7330752 2.75581569,1.58722069 C3.06431234,1.44149935 3.36619425,1.34325313 3.66163017,1.29258193 C3.95706608,1.2419773 4.27177249,1.2166417 4.60585064,1.2166417 C4.93982754,1.2166417 5.29962218,1.29734276 5.68503207,1.45897792 C6.07037446,1.6205465 6.42527554,1.82333121 6.74963407,2.06726548 C7.0740601,2.3113662 7.35187921,2.53945323 7.58322639,2.75165972 C7.81443857,2.96406597 8.00707602,3.1587939 8.16127372,3.33624301 C8.27682919,3.47570536 8.43433426,3.54541988 8.63338396,3.54541988 C8.83250115,3.54541988 8.98983748,3.47570536 9.10552794,3.33624301 C9.2596919,3.1587939 9.45246434,2.9639661 9.68367652,2.75165972 C9.91492245,2.53945323 10.1927753,2.31146608 10.5170663,2.06726548 C10.8414924,1.82333121 11.1963935,1.6205465 11.5819383,1.45897792 C11.9672132,1.29737605 12.3271091,1.2166417 12.6611198,1.2166417 C12.9951304,1.2166417 13.3097356,1.2419773 13.6053065,1.29258193 C13.9008437,1.34321984 14.2027256,1.44149935 14.511121,1.58722069 C14.8194826,1.73304191 15.0812036,1.92154413 15.2963514,2.15279395 C15.511533,2.38407706 15.6882411,2.69626098 15.8263744,3.08911266 C15.9642715,3.48189776 16.0333213,3.9350422 16.0333213,4.44824633 C16.0332538,5.51284111 15.4295575,6.64089142 14.2218611,7.83206434 Z" id="Shape" fill="#A5BBA6"></path>
            <path d="M19.1348617,4.97502788 C18.6024958,4.45826966 17.8669832,4.2 16.9279934,4.2 C16.6681416,4.2 16.4029386,4.24478892 16.1326487,4.33432299 C15.8622487,4.42392272 15.610699,4.54480466 15.3782858,4.69688122 C15.1455643,4.848914 14.9455665,4.9916869 14.7777859,5.12498102 C14.6102036,5.25831891 14.4508792,5.40001915 14.300011,5.54997229 C14.1490768,5.40001915 13.9897964,5.25831891 13.822192,5.12498102 C13.6544775,4.9916869 13.4543917,4.84900157 13.2217142,4.69688122 C12.9890808,4.54473898 12.7375751,4.42394462 12.4672412,4.33432299 C12.1969293,4.24481081 11.9317703,4.2 11.6719186,4.2 C10.7329948,4.2 9.9974381,4.45833533 9.46513833,4.97502788 C8.93283857,5.49167664 8.66666667,6.20829941 8.66666667,7.12496186 C8.66666667,7.40413739 8.71599446,7.69174095 8.81445186,7.98742227 C8.91290926,8.28325683 9.02510797,8.53537512 9.15082779,8.7436677 C9.27652558,8.95193838 9.4190697,9.15504279 9.57835003,9.35298093 C9.73763036,9.55089719 9.85403515,9.68729982 9.92730014,9.76229828 C10.0006312,9.83729674 10.0582831,9.89152067 10.1001897,9.92488251 L14.023357,13.6873929 C14.0988241,13.7623913 14.1910274,13.8 14.299989,13.8 C14.4089506,13.8 14.50122,13.7623913 14.576643,13.6873929 L18.4935783,9.9372509 C19.4534444,8.98324246 19.9333333,8.04573981 19.9333333,7.1248743 C19.9333554,6.20814618 19.6672055,5.49158908 19.1348617,4.97502788 Z M17.9465608,9.38604239 L14.299956,12.9028037 L10.647119,9.3796962 C9.86328135,8.59556657 9.47142857,7.85101251 9.47142857,7.14638659 C9.47142857,6.80671094 9.51648481,6.50678714 9.60655326,6.24681351 C9.69668777,5.98679582 9.81194895,5.78016989 9.95235882,5.62708999 C10.0927907,5.47396601 10.2635684,5.34928973 10.464758,5.25275265 C10.6660576,5.15630371 10.8630411,5.09127725 11.0558184,5.05773938 C11.2485957,5.02424557 11.4539473,5.00747664 11.6719394,5.00747664 C11.8898654,5.00747664 12.1246379,5.06089044 12.3761248,5.1678723 C12.6275678,5.27481008 12.8591472,5.40902769 13.070797,5.57048105 C13.2824909,5.73204459 13.4637729,5.8830091 13.6147311,6.02346272 C13.7656012,6.16404856 13.8913007,6.2929336 13.9919175,6.41038227 C14.0673195,6.50268855 14.1700944,6.54883068 14.299978,6.54883068 C14.4299056,6.54883068 14.5325704,6.50268855 14.6080605,6.41038227 C14.7086553,6.2929336 14.8344428,6.16398245 14.9853129,6.02346272 C15.1362051,5.8830091 15.3175091,5.73211069 15.5291149,5.57048105 C15.7408088,5.40902769 15.9723882,5.27481008 16.2239632,5.1678723 C16.4753621,5.06091248 16.7102007,5.00747664 16.9281487,5.00747664 C17.1460967,5.00747664 17.3513823,5.02424557 17.5442477,5.05773938 C17.7370911,5.09125522 17.9340745,5.15630371 18.1353081,5.25275265 C18.3365197,5.34926769 18.5072974,5.47403211 18.6476852,5.62708999 C18.7880951,5.78016989 18.9034003,5.98679582 18.9935348,6.24681351 C19.0835152,6.50678714 19.1285714,6.80671094 19.1285714,7.14638659 C19.1285274,7.85101251 18.7346046,8.59763789 17.9465608,9.38604239 Z" id="Shape-Copy" fill="#1A5367"></path>
        </g>
    </g>
</svg>